/* XPM */
static char * voyager_xpm[] = {
"32 32 578 2",
"  	c None",
". 	c #2F388A",
"+ 	c #3C4492",
"@ 	c #343C8D",
"# 	c #1F277F",
"$ 	c #2C3286",
"% 	c #696FAD",
"& 	c #848CBE",
"* 	c #98A0CA",
"= 	c #959BC7",
"- 	c #8289BC",
"; 	c #7C85BA",
"> 	c #6672B0",
", 	c #525EA4",
"' 	c #434F9B",
") 	c #2A3489",
"! 	c #2D3487",
"~ 	c #7074AF",
"{ 	c #9499C5",
"] 	c #959EC8",
"^ 	c #7B83B8",
"/ 	c #6C76B1",
"( 	c #616DAB",
"_ 	c #4F5DA3",
": 	c #4B59A0",
"< 	c #4D59A1",
"[ 	c #4D59A0",
"} 	c #4D589E",
"| 	c #5967A9",
"1 	c #5464A8",
"2 	c #263188",
"3 	c #5B60A2",
"4 	c #979BC6",
"5 	c #9FA8CE",
"6 	c #ADBADB",
"7 	c #8D9AC8",
"8 	c #707DB6",
"9 	c #606FAE",
"0 	c #384C9A",
"a 	c #304A9B",
"b 	c #4F67AD",
"c 	c #4E62A7",
"d 	c #5160A4",
"e 	c #5D70B0",
"f 	c #5E70B0",
"g 	c #6073B1",
"h 	c #3F4D99",
"i 	c #101875",
"j 	c #6065A5",
"k 	c #989DC7",
"l 	c #8991C0",
"m 	c #8F9BC7",
"n 	c #A3B3D7",
"o 	c #99ADD4",
"p 	c #7488BE",
"q 	c #4B60A6",
"r 	c #33519F",
"s 	c #304B9B",
"t 	c #496AB0",
"u 	c #3A519E",
"v 	c #5063A7",
"w 	c #4F61A5",
"x 	c #3E56A2",
"y 	c #5264A7",
"z 	c #5F72B2",
"A 	c #4C5CA2",
"B 	c #131B78",
"C 	c #434996",
"D 	c #A1A7CC",
"E 	c #848CBD",
"F 	c #7783B9",
"G 	c #9FB0D5",
"H 	c #9AADD4",
"I 	c #90A6D1",
"J 	c #7D97C9",
"K 	c #6481BC",
"L 	c #6A84BD",
"M 	c #5D77B5",
"N 	c #5D78B6",
"O 	c #6E8BC2",
"P 	c #657BB6",
"Q 	c #6177B4",
"R 	c #4E63A7",
"S 	c #475BA2",
"T 	c #465AA4",
"U 	c #7A617C",
"V 	c #835C76",
"W 	c #3E4991",
"X 	c #2E3588",
"Y 	c #9095C3",
"Z 	c #9097C4",
"` 	c #7481B7",
" .	c #8494C4",
"..	c #9BB0D6",
"+.	c #9DB2D7",
"@.	c #A3B7DA",
"#.	c #6F88BE",
"$.	c #2D509E",
"%.	c #395FA9",
"&.	c #254C9D",
"*.	c #4969AD",
"=.	c #4066AE",
"-.	c #1C4195",
";.	c #2D4D9C",
">.	c #244395",
",.	c #203F94",
"'.	c #213D92",
").	c #37539F",
"!.	c #81515A",
"~.	c #C23200",
"{.	c #B43617",
"].	c #D34115",
"^.	c #6D73AE",
"/.	c #868EBE",
"(.	c #7986BB",
"_.	c #6879B3",
":.	c #A1B3D7",
"<.	c #ADBFDE",
"[.	c #97B0D7",
"}.	c #7C9CCD",
"|.	c #4E74B6",
"1.	c #2952A0",
"2.	c #5F88C3",
"3.	c #476EB2",
"4.	c #5475B3",
"5.	c #617EB8",
"6.	c #1D479A",
"7.	c #3E60A7",
"8.	c #3859A3",
"9.	c #1F4195",
"0.	c #1D3D93",
"a.	c #395AA6",
"b.	c #344F9D",
"c.	c #1F358D",
"d.	c #6E2A2E",
"e.	c #B52C00",
"f.	c #FA4204",
"g.	c #D44313",
"h.	c #353C8C",
"i.	c #848EBF",
"j.	c #5C6DAD",
"k.	c #ACBCDC",
"l.	c #A4B9DB",
"m.	c #8BA8D3",
"n.	c #8BA9D5",
"o.	c #8DADD7",
"p.	c #6F97CC",
"q.	c #4F7BBB",
"r.	c #5E8BC5",
"s.	c #6792C9",
"t.	c #2F5FA9",
"u.	c #2755A3",
"v.	c #2955A2",
"w.	c #446AAD",
"x.	c #1C479A",
"y.	c #1E4698",
"z.	c #1F4296",
"A.	c #2B4C9B",
"B.	c #264397",
"C.	c #1C338C",
"D.	c #183291",
"E.	c #7E352F",
"F.	c #CA3300",
"G.	c #FF4000",
"H.	c #E9430A",
"I.	c #535AA1",
"J.	c #6E79B2",
"K.	c #7482B8",
"L.	c #8898C5",
"M.	c #9BB3D9",
"N.	c #94AFD7",
"O.	c #90AFD7",
"P.	c #97B6DC",
"Q.	c #749CCF",
"R.	c #6894CA",
"S.	c #6794CA",
"T.	c #608FC7",
"U.	c #2D62AC",
"V.	c #3569B0",
"W.	c #2F60AA",
"X.	c #2659A6",
"Y.	c #2052A2",
"Z.	c #23519F",
"`.	c #204C9D",
" +	c #204799",
".+	c #2B52A1",
"++	c #2D4E9E",
"@+	c #395AA7",
"#+	c #344F9E",
"$+	c #454B8B",
"%+	c #B12A00",
"&+	c #FF4100",
"*+	c #E7420A",
"=+	c #242A81",
"-+	c #2A358B",
";+	c #6774B0",
">+	c #8492C2",
",+	c #556DAE",
"'+	c #98B2D9",
")+	c #89A9D4",
"!+	c #81A5D3",
"~+	c #7CA3D2",
"{+	c #6F9BCE",
"]+	c #8EB3DB",
"^+	c #7FA9D7",
"/+	c #4D80BE",
"(+	c #326BB2",
"_+	c #255FAB",
":+	c #265FAA",
"<+	c #265EA9",
"[+	c #255BA7",
"}+	c #2357A4",
"|+	c #2051A0",
"1+	c #1D4598",
"2+	c #3057A4",
"3+	c #3B5EA8",
"4+	c #3857A4",
"5+	c #39519B",
"6+	c #BC2C00",
"7+	c #1F2780",
"8+	c #192885",
"9+	c #4E5FA5",
"0+	c #435BA3",
"a+	c #6B84BB",
"b+	c #83A2D0",
"c+	c #82A5D3",
"d+	c #7AA2D2",
"e+	c #99BBE0",
"f+	c #87AFDA",
"g+	c #9ABEE2",
"h+	c #729CCC",
"i+	c #6E98CA",
"j+	c #4078B9",
"k+	c #2364AE",
"l+	c #2564AE",
"m+	c #2664AD",
"n+	c #245FAB",
"o+	c #245CA8",
"p+	c #2257A5",
"q+	c #2152A1",
"r+	c #204B9C",
"s+	c #325BA7",
"t+	c #3B61AA",
"u+	c #5673B4",
"v+	c #4B4877",
"w+	c #E63900",
"x+	c #FE4000",
"y+	c #1F2881",
"z+	c #404E9A",
"A+	c #19328B",
"B+	c #173890",
"C+	c #5C7AB6",
"D+	c #7698CA",
"E+	c #85A9D5",
"F+	c #769FD0",
"G+	c #9ABDE0",
"H+	c #9EC2E4",
"I+	c #85AED7",
"J+	c #6F9CCC",
"K+	c #6F9ECD",
"L+	c #73A0CF",
"M+	c #6798CA",
"N+	c #2469B2",
"O+	c #296AB2",
"P+	c #2566AF",
"Q+	c #2461AC",
"R+	c #245DA8",
"S+	c #2357A5",
"T+	c #214F9D",
"U+	c #3B67AF",
"V+	c #486EB4",
"W+	c #809CCF",
"X+	c #9D3B27",
"Y+	c #252E86",
"Z+	c #314193",
"`+	c #1E388F",
" @	c #1B3E94",
".@	c #5070B1",
"+@	c #5982BE",
"@@	c #77A0D0",
"#@	c #5A85BF",
"$@	c #729BCB",
"%@	c #86AFD8",
"&@	c #75A2CF",
"*@	c #74A3D0",
"=@	c #73A4D1",
"-@	c #74A5D2",
";@	c #659ACC",
">@	c #2771B7",
",@	c #2C72B6",
"'@	c #286DB3",
")@	c #2768AF",
"!@	c #2763AC",
"~@	c #235BA7",
"{@	c #1F52A2",
"]@	c #4271B5",
"^@	c #4F76B9",
"/@	c #7F6C84",
"(@	c #FF3F00",
"_@	c #FE4100",
":@	c #EF4207",
"<@	c #3E4693",
"[@	c #132683",
"}@	c #254094",
"|@	c #1D4196",
"1@	c #4066AB",
"2@	c #4D79B8",
"3@	c #709DCE",
"4@	c #6692C6",
"5@	c #7BA5D2",
"6@	c #7DAAD4",
"7@	c #78A8D3",
"8@	c #5694C9",
"9@	c #609CCE",
"0@	c #7CADD6",
"a@	c #5293C9",
"b@	c #2B79BC",
"c@	c #2C77BB",
"d@	c #2872B8",
"e@	c #286DB4",
"f@	c #2868B0",
"g@	c #2460AB",
"h@	c #2157A5",
"i@	c #3969B0",
"j@	c #5C72A5",
"k@	c #FB3F00",
"l@	c #394291",
"m@	c #182B87",
"n@	c #1C3890",
"o@	c #204599",
"p@	c #214F9F",
"q@	c #557FBA",
"r@	c #477CBC",
"s@	c #8CB6DE",
"t@	c #7FAAD4",
"u@	c #7CACD5",
"v@	c #488FC8",
"w@	c #3686C4",
"x@	c #2A80C1",
"y@	c #2D82C2",
"z@	c #3084C3",
"A@	c #2C7FC1",
"B@	c #2D7DBE",
"C@	c #2977BC",
"D@	c #2872B7",
"E@	c #286CB3",
"F@	c #235CA8",
"G@	c #48649B",
"H@	c #F34308",
"I@	c #CC3F11",
"J@	c #353C8D",
"K@	c #21338B",
"L@	c #1A378E",
"M@	c #1D4498",
"N@	c #2352A1",
"O@	c #5982BC",
"P@	c #2665AF",
"Q@	c #397BBC",
"R@	c #88B8DF",
"S@	c #458CC6",
"T@	c #2C82C2",
"U@	c #3087C6",
"V@	c #2E88C7",
"W@	c #318AC8",
"X@	c #2D86C5",
"Y@	c #2E83C3",
"Z@	c #2A7DBF",
"`@	c #2A77BB",
" #	c #2971B6",
".#	c #2569B3",
"+#	c #4D5580",
"@#	c #FA4000",
"##	c #FF4200",
"$#	c #BD3B18",
"%#	c #2B3285",
"&#	c #223189",
"*#	c #223D92",
"=#	c #1D4397",
"-#	c #2454A2",
";#	c #1C57A6",
">#	c #6091C6",
",#	c #3D87C4",
"'#	c #4F97CE",
")#	c #4395CE",
"!#	c #4F9FD4",
"~#	c #3B96CF",
"{#	c #3693CD",
"]#	c #318FCC",
"^#	c #318DCA",
"/#	c #328AC7",
"(#	c #2073BC",
"_#	c #96504B",
":#	c #F74104",
"<#	c #4E356A",
"[#	c #1C2985",
"}#	c #1E388E",
"|#	c #2B4E9D",
"1#	c #2B58A4",
"2#	c #3C6FB2",
"3#	c #568AC2",
"4#	c #337CBC",
"5#	c #2C7EC0",
"6#	c #2783C4",
"7#	c #7DBCE4",
"8#	c #79BCE5",
"9#	c #76BCE6",
"0#	c #6FB8E3",
"a#	c #419FD5",
"b#	c #3194CE",
"c#	c #308ECA",
"d#	c #258BCF",
"e#	c #606985",
"f#	c #ED420A",
"g#	c #9C3D39",
"h#	c #3D4F98",
"i#	c #19237B",
"j#	c #212B84",
"k#	c #1C348C",
"l#	c #1C3E93",
"m#	c #2A56A2",
"n#	c #2B62AB",
"o#	c #457FBC",
"p#	c #669DCE",
"q#	c #257DC0",
"r#	c #4C9DD2",
"s#	c #82C0E7",
"t#	c #7BBFE7",
"u#	c #76BFE7",
"v#	c #74BEE7",
"w#	c #6FBCE7",
"x#	c #63BDEE",
"y#	c #5C7793",
"z#	c #D5491C",
"A#	c #B4442F",
"B#	c #2F4486",
"C#	c #153691",
"D#	c #415098",
"E#	c #22358D",
"F#	c #1C3E94",
"G#	c #234D9D",
"H#	c #2358A6",
"I#	c #2869B1",
"J#	c #367EBE",
"K#	c #65A4D3",
"L#	c #62ABDA",
"M#	c #86C4E9",
"N#	c #81C5EA",
"O#	c #7CC8EF",
"P#	c #72BFE7",
"Q#	c #A3817D",
"R#	c #E94610",
"S#	c #96514E",
"T#	c #2C5A9C",
"U#	c #1D51A3",
"V#	c #1E4296",
"W#	c #2C4795",
"X#	c #253188",
"Y#	c #1B2680",
"Z#	c #203E94",
"`#	c #2851A0",
" $	c #2153A2",
".$	c #2865AE",
"+$	c #2973B8",
"@$	c #428EC8",
"#$	c #52A4D8",
"$$	c #77C6F0",
"%$	c #949DA9",
"&$	c #C46A50",
"*$	c #FE3B00",
"=$	c #FF3E00",
"-$	c #FA3A00",
";$	c #D16545",
">$	c #7A7B8F",
",$	c #1F75BD",
"'$	c #2669B2",
")$	c #2258A6",
"!$	c #214C9B",
"~$	c #204698",
"{$	c #20388E",
"]$	c #2A3A8E",
"^$	c #244E9E",
"/$	c #285BA8",
"($	c #2463B1",
"_$	c #236EB6",
":$	c #5E6A88",
"<$	c #B6624D",
"[$	c #F33D00",
"}$	c #FF3D00",
"|$	c #FF3A00",
"1$	c #EB4710",
"2$	c #CD755A",
"3$	c #BFA8A5",
"4$	c #A0D4F0",
"5$	c #60B0E3",
"6$	c #3384C4",
"7$	c #2B71B6",
"8$	c #2662AB",
"9$	c #2457A4",
"0$	c #2452A1",
"a$	c #204396",
"b$	c #16247B",
"c$	c #484882",
"d$	c #824D59",
"e$	c #C94723",
"f$	c #D04A22",
"g$	c #AF624F",
"h$	c #C99C90",
"i$	c #A4C9DB",
"j$	c #B3ECFF",
"k$	c #C2E9FB",
"l$	c #AFDCF3",
"m$	c #9BCEEC",
"n$	c #81B8DE",
"o$	c #3F86C2",
"p$	c #2A6EB4",
"q$	c #2867B0",
"r$	c #2761AC",
"s$	c #244D9C",
"t$	c #182981",
"u$	c #DC3B0A",
"v$	c #894D5D",
"w$	c #776F8F",
"x$	c #4374AA",
"y$	c #207FC9",
"z$	c #2F8FD0",
"A$	c #53A8DB",
"B$	c #9AD1EC",
"C$	c #D5EEFA",
"D$	c #BAE6F9",
"E$	c #A7DBF5",
"F$	c #A1D4F0",
"G$	c #8EC3E4",
"H$	c #8EBFE1",
"I$	c #428BC7",
"J$	c #2F77BB",
"K$	c #2C6BB2",
"L$	c #2A53A0",
"M$	c #192C82",
"N$	c #26378A",
"O$	c #4768AD",
"P$	c #5B8DC5",
"Q$	c #5B9ACF",
"R$	c #7EB7DF",
"S$	c #9ACCEA",
"T$	c #B0DCF5",
"U$	c #B3DCF2",
"V$	c #ABD7EF",
"W$	c #99CBE8",
"X$	c #90C1E3",
"Y$	c #87B8DD",
"Z$	c #2A75BB",
"`$	c #2C66AF",
" %	c #32529E",
".%	c #202F81",
"+%	c #234495",
"@%	c #295DA9",
"#%	c #3276BA",
"$%	c #71A6D3",
"%%	c #8EBDDF",
"&%	c #8DBDE0",
"*%	c #6DA9D5",
"=%	c #6BA5D3",
"-%	c #699ECF",
";%	c #497FBD",
">%	c #3D63A9",
",%	c #354E98",
"'%	c #1A52A0",
")%	c #1A4D99",
"!%	c #1D5297",
"~%	c #1D5494",
"{%	c #2A5E98",
"]%	c #1E5695",
"^%	c #1F569A",
"/%	c #1C519C",
"(%	c #1C509F",
"_%	c #195699",
":%	c #185496",
"<%	c #19569A",
"                                                                ",
"                          . + @ #                               ",
"                  $ % & * = - ; > , ' )                         ",
"              ! ~ { ] ^ / ( _ : < [ } | 1 2                     ",
"            3 4 5 6 7 8 9 0 a b c d _ e f g h i                 ",
"          j k l m n o p q r s t t u v w x y z A B               ",
"        C D E F G H I J K L M N O P Q R S T U V W               ",
"      X Y Z `  ...+.@.#.$.%.&.*.=.-.;.>.,.'.).!.~.{.].          ",
"      ^./.(._.:.<.[.}.|.1.2.3.4.5.6.7.8.9.0.a.b.c.d.e.f.g.      ",
"    h.^ i.j.k.l.m.n.o.p.q.r.s.t.u.v.w.x.y.z.A.B.C.D.E.F.G.H.    ",
"    I.J.K.L.M.N.O.P.Q.R.S.T.U.V.W.X.Y.Z.`. +.+++@+#+$+%+&+G.*+  ",
"  =+-+;+>+,+'+)+!+~+{+]+^+/+(+_+:+<+[+}+|+`.1+2+3+4+5+6+&+&+G.  ",
"  7+8+9+0+a+b+c+d+e+f+g+h+i+j+k+l+m+n+o+p+q+r+s+t+u+v+w+x+&+G.  ",
"  y+z+A+B+C+D+E+F+G+H+I+J+K+L+M+N+O+P+Q+R+S+T+U+V+W+X+&+&+&+G.  ",
"  Y+Z+`+ @.@+@@@#@$@%@&@*@=@-@;@>@,@'@)@!@~@{@]@^@/@(@x+&+_@:@  ",
"  <@[@}@|@1@2@3@4@5@6@7@8@9@0@a@b@c@d@e@f@g@h@i@j@k@x+&+_@&+    ",
"  l@m@n@o@p@q@r@s@t@u@v@w@x@y@z@A@B@C@D@E@l+F@G@H@_@&+&+&+I@    ",
"  J@K@L@M@N@O@P@Q@R@S@T@U@V@W@V@X@Y@Z@`@ #.#+#@#_@&+_@##$#      ",
"  %#&#*#=#-#;#>#>@,#'#)#!#~#{#]#^#/#Y@B@(#_#G._@&+G.:#<#        ",
"    [#}#|#1#2#3#4#5#6#7#8#9#0#a#b#c#d#e#f#G.&+x+&+g#h#i#        ",
"    j#k#l#m#n#o#p#q#r#s#t#u#v#w#x#y#z#(@_@G.G.A#B#C#D#          ",
"      E#F#G#H#I#J#K#L#M#N#O#P#Q#R#(@_@(@@#S#T#U#V#W#X#          ",
"      Y#Z#`# $.$+$@$#$$$%$&$*$G.=$-$;$>$,$'$)$!$~${$            ",
"        ]$^$/$($_$:$<$[$}$|$1$2$3$4$5$6$7$8$9$0$a$b$            ",
"          c$d$e$}$=$f$g$h$i$j$k$l$m$n$o$p$q$r$s$t$              ",
"          u$v$w$x$y$z$A$B$C$D$E$F$G$H$I$J$K$L$M$                ",
"              N$O$P$Q$R$S$T$U$V$W$X$Y$Z$`$ %.%                  ",
"                  +%@%#%$%%%&%*%=%-%;%>%,%                      ",
"                    '%)%!%~%{%]%^%/%(%                          ",
"                          _%:%<%                                ",
"                                                                ",
"                                                                "};
